<svg xmlns="http://www.w3.org/2000/svg" viewBox="0 0 1440 320"><path fill="#2563eb" fill-opacity="1" d="M0,160L34.3,181.3C68.6,203,137,245,206,256C274.3,267,343,245,411,240C480,235,549,245,617,240C685.7,235,754,213,823,208C891.4,203,960,213,1029,213.3C1097.1,213,1166,203,1234,186.7C1302.9,171,1371,149,1406,138.7L1440,128L1440,320L1405.7,320C1371.4,320,1303,320,1234,320C1165.7,320,1097,320,1029,320C960,320,891,320,823,320C754.3,320,686,320,617,320C548.6,320,480,320,411,320C342.9,320,274,320,206,320C137.1,320,69,320,34,320L0,320Z"></path></svg>